<svg height="480pt" viewBox="0 -63 480 479" width="480pt" xmlns="http://www.w3.org/2000/svg"><path d="m440 .5h-336c-22.082031.027344-39.972656 17.917969-40 40v8h-24c-22.082031.027344-39.9726562 17.917969-40 40v224c.0273438 22.082031 17.917969 39.972656 40 40h336c22.082031-.027344 39.972656-17.917969 40-40v-8h24c22.082031-.027344 39.972656-17.917969 40-40v-224c-.027344-22.082031-17.917969-39.972656-40-40zm-424 88c0-13.253906 10.746094-24 24-24h336c13.253906 0 24 10.746094 24 24v16h-384zm0 32h384v16h-384zm384 192c0 13.253906-10.746094 24-24 24h-336c-13.253906 0-24-10.746094-24-24v-160h384zm64-48c0 13.253906-10.746094 24-24 24h-24v-200c-.027344-22.082031-17.917969-39.972656-40-40h-296v-8c0-13.253906 10.746094-24 24-24h336c13.253906 0 24 10.746094 24 24zm0 0"/><path d="m320 240.5c-9.226562.027344-17.984375 4.0625-24 11.054688-8.746094-10.101563-22.847656-13.707032-35.371094-9.039063-12.519531 4.667969-20.824218 16.621094-20.824218 29.984375s8.304687 25.316406 20.824218 29.984375c12.523438 4.667969 26.625 1.0625 35.371094-9.039063 9.6875 11.09375 25.707031 14.121094 38.777344 7.328126 13.070312-6.789063 19.800781-21.636719 16.292968-35.941407-3.507812-14.304687-16.339843-24.355469-31.070312-24.332031zm-48 48c-8.835938 0-16-7.164062-16-16s7.164062-16 16-16 16 7.164062 16 16-7.164062 16-16 16zm48 0c-8.835938 0-16-7.164062-16-16s7.164062-16 16-16 16 7.164062 16 16-7.164062 16-16 16zm0 0"/></svg>